<?xml version="1.0" encoding="utf-8"?>
<!-- Generator: Adobe Illustrator 25.2.3, SVG Export Plug-In . SVG Version: 6.00 Build 0)  -->
<svg version="1.1" id="Layer_1" xmlns="http://www.w3.org/2000/svg" xmlns:xlink="http://www.w3.org/1999/xlink" x="0px" y="0px"
	 viewBox="0 0 1280 640" style="enable-background:new 0 0 1280 640;" xml:space="preserve">
<style type="text/css">
	.st0{fill-rule:evenodd;clip-rule:evenodd;fill:#101922;}
	.st1{fill-rule:evenodd;clip-rule:evenodd;fill:#FBFBFC;}
	.st2{fill-rule:evenodd;clip-rule:evenodd;fill:#FAFBFB;}
	.st3{fill-rule:evenodd;clip-rule:evenodd;fill:#62676A;}
	.st4{fill-rule:evenodd;clip-rule:evenodd;fill:#F6F7F8;}
	.st5{fill-rule:evenodd;clip-rule:evenodd;fill:#F5F7F7;}
	.st6{fill-rule:evenodd;clip-rule:evenodd;fill:#131B26;}
	.st7{fill-rule:evenodd;clip-rule:evenodd;fill:#C8CDD0;}
	.st8{fill-rule:evenodd;clip-rule:evenodd;fill:#969BA0;}
	.st9{fill-rule:evenodd;clip-rule:evenodd;fill:#CACFD4;}
	.st10{fill-rule:evenodd;clip-rule:evenodd;fill:#545B67;}
	.st11{fill-rule:evenodd;clip-rule:evenodd;fill:#8A8F96;}
	.st12{fill-rule:evenodd;clip-rule:evenodd;fill:#FBFCFC;}
	.st13{fill-rule:evenodd;clip-rule:evenodd;fill:#656A6C;}
	.st14{fill-rule:evenodd;clip-rule:evenodd;fill:#818587;}
	.st15{fill-rule:evenodd;clip-rule:evenodd;fill:#858D92;}
	.st16{fill-rule:evenodd;clip-rule:evenodd;fill:#F1F4F5;}
	.st17{fill-rule:evenodd;clip-rule:evenodd;fill:#EDF3F4;}
	.st18{fill-rule:evenodd;clip-rule:evenodd;fill:#73777E;}
	.st19{fill-rule:evenodd;clip-rule:evenodd;fill:#6D7679;}
	.st20{fill-rule:evenodd;clip-rule:evenodd;fill:#F9FAFA;}
	.st21{fill-rule:evenodd;clip-rule:evenodd;fill:#F7F9F9;}
	.st22{fill-rule:evenodd;clip-rule:evenodd;fill:#F6F7F7;}
	.st23{fill-rule:evenodd;clip-rule:evenodd;fill:#F8F9FA;}
	.st24{fill-rule:evenodd;clip-rule:evenodd;fill:#F7F8F8;}
	.st25{fill-rule:evenodd;clip-rule:evenodd;fill:#121A23;}
	.st26{fill-rule:evenodd;clip-rule:evenodd;fill:#B2BABE;}
	.st27{fill-rule:evenodd;clip-rule:evenodd;fill:#44484C;}
	.st28{fill-rule:evenodd;clip-rule:evenodd;fill:#B2B4B7;}
	.st29{fill-rule:evenodd;clip-rule:evenodd;fill:#AAADB0;}
	.st30{fill-rule:evenodd;clip-rule:evenodd;fill:#B7BABE;}
</style>
<g>
	<path class="st0" d="M0.4-0.4c427,0,854,0,1281,0c0,213.7,0,427.3,0,641c-427,0-854,0-1281,0C0.4,426.9,0.4,213.3,0.4-0.4z"/>
</g>
<g>
	<path class="st1" d="M763.8,261.5c0,2.5,0,5,0,7.6c-5.7,0-11.3,0-17,0c-3.3-42.2-22.8-74.4-58.6-96.7c-32.6-18-66.4-20.7-101.4-8.2
		c-44.6,20.8-69.2,55.8-73.7,104.9c-5.5,0-10.9,0-16.4,0c0-4.6,0-9.2,0-13.9c6.6-39.2,25.9-70.3,57.9-93.5
		c36.6-24.1,75.8-29.5,117.8-16.4c48,18.6,77.9,52.9,89.7,103C763.1,252.7,763.6,257.1,763.8,261.5z"/>
</g>
<g>
	<path class="st2" d="M617.1,178.4c0.6,0,1.3,0,1.9,0c0,5.9,0,11.8,0,17.6c-17.4,3.1-32.2,11.1-44.4,23.9
		c-3.5,4.4-6.9,8.8-10.4,13.2c-4.5-2.6-9.1-5-13.9-7.2c-0.3-0.4-0.5-0.8-0.6-1.3c11.9-20.3,28.9-34.6,51-42.8
		C606.1,180.3,611.5,179.1,617.1,178.4z"/>
</g>
<g>
	<path class="st2" d="M641,178.4c29.8,4.1,52.8,18.8,69,44.1c0.6,1,1,2,0.9,3.1c-5.2,2.3-10.4,4.8-15.4,7.6
		C682.7,213,664.6,200.6,641,196C641,190.2,641,184.3,641,178.4z"/>
</g>
<g>
	<path class="st3" d="M617.1,178.4c0.7-0.6,1.5-0.8,2.5-0.6c0.2,6.2,0,12.3-0.6,18.3c0-5.9,0-11.8,0-17.6
		C618.3,178.4,617.7,178.4,617.1,178.4z"/>
</g>
<g>
	<path class="st2" d="M595,287.4c3.9,12.4,12,20.8,24.2,25.2c0.3,5.5,0.4,10.9,0.3,16.4c-22.6-4.7-36.4-18.4-41.6-40.9
		c-0.5-6.3-0.7-12.6-0.6-18.9c3.4-20.8,14.7-35.3,34-43.5c2.4-0.9,4.9-1.6,7.6-1.9c0.1,5.3,0,10.5-0.3,15.7
		C598.1,249.3,590.3,265.2,595,287.4z"/>
</g>
<g>
	<path class="st2" d="M658,230.1c20.7,14.4,28.6,34.2,23.6,59.2c-4.8,18.2-15.8,30.9-33.1,38.1c-2.5,0.7-5,1.3-7.6,1.6
		c-0.1-5.5,0-10.9,0.3-16.4c21-9.7,28.9-25.9,23.6-48.5c-4.1-11.5-11.9-19.5-23.3-23.9c-0.6-5.4-0.8-10.9-0.6-16.4
		C647.2,224.6,652.8,226.7,658,230.1z"/>
</g>
<g>
	<path class="st4" d="M539,246.4c5.1,2.1,10.2,4.4,15.1,6.9c0.2,0.4,0.4,0.8,0.6,1.3c-1.4,4.9-2.2,10-2.5,15.1c-5.7,0-11.3,0-17,0
		C534.9,261.7,536.2,253.9,539,246.4z"/>
</g>
<g>
	<path class="st5" d="M719.7,246.4c0.6-0.1,1.2,0.2,1.6,0.6c2.6,7.3,3.7,14.9,3.5,22.7c-5.8,0.2-11.6,0-17.3-0.6
		c-0.4-4.9-1.3-9.8-2.8-14.5c0.2-0.4,0.4-0.8,0.6-1.3C710.1,250.8,714.9,248.5,719.7,246.4z"/>
</g>
<g>
	<path class="st2" d="M656.1,267.8c3.3,16-2.4,27.5-17,34.3c-1.9,0.4-3.8,0.8-5.7,0.9c-4.3,0.2-8.5-0.2-12.6-1.3
		c-7.1-2.9-12.3-7.7-15.7-14.5c-5.3-16.2-0.5-28.3,14.5-36.2C636.5,246.7,648.7,252.2,656.1,267.8z"/>
</g>
<g>
	<path class="st6" d="M625.9,263.4c11.6-0.9,17.3,4.3,17.3,15.7c-4.3,9.8-11.3,12.5-21.1,7.9C613.8,277.6,615,269.7,625.9,263.4z"/>
</g>
<g>
	<path class="st7" d="M496.8,255.2c0,4.6,0,9.2,0,13.9c5.5,0,10.9,0,16.4,0c-5.8,0.6-11.6,0.8-17.6,0.6
		C495.3,264.7,495.7,259.9,496.8,255.2z"/>
</g>
<g>
	<path class="st8" d="M763.8,261.5c0.6,2.6,0.8,5.3,0.6,8.2c-6,0.2-11.9,0-17.6-0.6c5.7,0,11.3,0,17,0
		C763.8,266.6,763.8,264.1,763.8,261.5z"/>
</g>
<g>
	<path class="st9" d="M577.4,269.1c-0.1,6.3,0.1,12.6,0.6,18.9c-0.9-3.6-1.4-7.4-1.3-11.3C576.8,274,577,271.5,577.4,269.1z"/>
</g>
<g>
	<path class="st1" d="M533.3,308.1c-5.8-0.6-11.6-0.8-17.6-0.6c0,4.2,0,8.4,0,12.6c-4.5,0.8-9.1,0.8-13.9,0
		c-3.4-8.9-5.2-18.2-5.4-27.7c0.3-0.3,0.6-0.6,0.9-0.9c17-0.4,34-0.4,51,0c2.6,0.9,4.4,2.7,5.4,5.4c0.3,27.3,0.4,54.6,0.3,81.9
		c-7.6,0.2-13.4-2.9-17.3-9.4c-0.2-19.7-0.4-39.5-0.6-59.2C535.5,309,534.5,308.4,533.3,308.1z"/>
</g>
<g>
	<path class="st1" d="M763.2,293c0,3-0.2,5.9-0.6,8.8c-0.9,6.2-2.2,12.3-4.1,18.3c-4.9,0.6-9.8,0.8-14.8,0.6c0-4.4,0-8.8,0-13.2
		c-6-0.2-11.9,0-17.6,0.6c-1.4,0.3-2.3,1.2-2.8,2.5c-0.2,19.7-0.4,39.5-0.6,59.2c-0.9,2.4-2.5,4.2-4.7,5.4c-3.6,2.4-7.6,3.6-12,3.5
		c-0.1-27.3,0-54.6,0.3-81.9c0.9-2.4,2.5-4.2,4.7-5.4c17-0.4,34-0.4,51,0C762.5,291.9,762.9,292.4,763.2,293z"/>
</g>
<g>
	<path class="st10" d="M763.2,293c0.4,1,0.6,2.2,0.6,3.5c0.1,2-0.3,3.8-1.3,5.4C763,298.9,763.2,296,763.2,293z"/>
</g>
<g>
	<path class="st11" d="M620.9,301.8c4.1,1,8.3,1.4,12.6,1.3c-2.8,0.7-5.8,0.8-8.8,0.3C623.2,303.1,622,302.5,620.9,301.8z"/>
</g>
<g>
	<path class="st12" d="M619,340.3c0,11.1,0,22.3,0,33.4c-1,0-2.1,0-3.1,0c-5.7-0.3-10.7-2.4-14.8-6.3c-0.2-3.4-0.4-6.7-0.6-10.1
		c-1.1-2.6-2.9-4.6-5.4-6c-7.5-2.3-13.7-6.4-18.6-12.3c-1-1.8-1.9-3.7-2.5-5.7c-0.4-8.8-0.4-17.6,0-26.5
		c7.3,12.8,17.5,22.5,30.5,29.3C609.2,338,614,339.4,619,340.3z"/>
</g>
<g>
	<path class="st1" d="M685.1,306.9c0.8,4,1.3,8.2,1.3,12.6c2,11.3-1.5,20.2-10.7,26.8c-5.7,1.6-10.6,4.5-14.8,8.5
		c-0.4,0.8-0.8,1.7-1.3,2.5c-0.2,3.1-0.4,6.3-0.6,9.4c-0.7,1.3-1.7,2.5-2.8,3.5c-4.7,2.7-9.7,3.8-15.1,3.5
		c-0.2-11.1,0-22.3,0.6-33.4C661.7,336.2,676.2,325.1,685.1,306.9z"/>
</g>
<g>
	<path class="st13" d="M726,308.1c5.8-0.6,11.6-0.8,17.6-0.6c0,4.4,0,8.8,0,13.2c-0.6-4.1-0.8-8.3-0.6-12.6
		C737.4,308.1,731.7,308.1,726,308.1z"/>
</g>
<g>
	<path class="st14" d="M533.3,308.1c-5.7,0-11.3,0-17,0c0.2,4.1,0,8.1-0.6,12c0-4.2,0-8.4,0-12.6
		C521.7,307.3,527.6,307.5,533.3,308.1z"/>
</g>
<g>
	<path class="st15" d="M743,341.5c2-0.8,4.1-0.8,6.3,0c-0.1,0.4-0.3,0.6-0.6,0.6C747,341.5,745.1,341.3,743,341.5z"/>
</g>
<g>
	<path class="st16" d="M511.3,341.5c1.7,0,3.4,0,5,0c0,2.3,0,4.6,0,6.9C514.2,346.5,512.5,344.2,511.3,341.5z"/>
</g>
<g>
	<path class="st17" d="M743,341.5c2-0.2,3.9,0,5.7,0.6c-1.6,2.2-3.4,4.3-5.4,6.3C743,346.1,742.9,343.8,743,341.5z"/>
</g>
<g>
	<path class="st18" d="M511.3,341.5c1.8-0.6,3.6-0.8,5.7-0.6c0.2,2.6,0,5.2-0.6,7.6c0-2.3,0-4.6,0-6.9
		C514.6,341.5,513,341.5,511.3,341.5z"/>
</g>
<g>
	<path class="st19" d="M619,340.3c0.6,11.2,0.8,22.6,0.6,34c-1.4,0.2-2.7,0-3.8-0.6c1,0,2.1,0,3.1,0C619,362.5,619,351.4,619,340.3z
		"/>
</g>
<g>
	<path class="st2" d="M573.6,367.3c0.6-0.1,1.2,0.2,1.6,0.6c5.6,11.6,14.5,19.5,26.8,23.6c4,1.1,8,2.1,12,3.1c1.7,0.3,3.3,0.4,5,0.3
		c0,5.7,0,11.3,0,17c-15.8-1.3-30.7-5.6-44.7-12.9C573.6,388.6,573.4,378,573.6,367.3z"/>
</g>
<g>
	<path class="st1" d="M685.1,367.3c0.8,5,1.3,10.3,1.3,15.7c-0.2,5.2-0.4,10.5-0.6,15.7c-13.9,7.6-28.8,12-44.7,13.2
		c0-5.7,0-11.3,0-17c14.2-1.3,26.5-6.7,36.8-16.4C680.9,375.3,683.3,371.5,685.1,367.3z"/>
</g>
<g>
	<path class="st20" d="M646.5,573.5c0.3-12.7,0-25.4-1-38c-0.6,0.1-0.9,0.5-1,1c-5,7.4-10.5,14.4-16.5,21
		c-5.4-6.5-10.5-13.2-15.5-20c-0.1-0.5-0.4-0.9-1-1c-1,12-1.3,24-1,36c-1.7,4.7-5,6.2-10,4.5c-1.2-1.2-2.3-2.3-3.5-3.5
		c-0.7-20.7-0.7-41.3,0-62c3.4-4.3,7.6-5.1,12.5-2.5c6.5,7.6,12.7,15.4,18.5,23.5c6.7-8.3,13.5-16.4,20.5-24.5
		c5.1-1.6,9-0.1,11.5,4.5c0.7,20,0.7,40,0,60c-2.2,4.4-5.7,5.9-10.5,4.5C648.3,576,647.3,574.8,646.5,573.5z"/>
</g>
<g>
	<path class="st20" d="M823.5,537.5c-0.1-0.5-0.4-0.9-1-1c-1,12-1.3,24-1,36c-1.9,4.4-5.2,5.9-10,4.5c-1.2-1.2-2.3-2.3-3.5-3.5
		c-0.7-20.7-0.7-41.3,0-62c4.3-4.9,8.9-5.3,14-1c5.7,7.3,11.3,14.7,17,22c6.2-8.6,13.1-16.8,20.5-24.5c4.4-1.4,7.9-0.2,10.5,3.5
		c1.6,19.9,2,39.9,1,60c-2.4,5.9-6.6,7.4-12.5,4.5c-0.6-0.8-1.1-1.6-1.5-2.5c-0.3-12.3-0.7-24.7-1-37c-4.5,5-8.5,10.3-12,16
		c-1.4,1.7-3.1,3.1-5,4C833.3,550.6,828.2,544.3,823.5,537.5z"/>
</g>
<g>
	<path class="st21" d="M430.5,559.5c1-3.1,1.3-6.5,1-10c-3,0-6,0-9,0c-6.6-2.8-7.6-7-3-12.5c7-0.7,14-0.7,21,0
		c1.8,0.8,3.3,2,4.5,3.5c0.7,9,0.7,18,0,27c-5.4,5.3-11.9,8.3-19.5,9c-5.4,0.1-10.7-0.2-16-1c-17.2-6.7-25.4-19.4-24.5-38
		c6.3-23.6,21.4-33.1,45.5-28.5c7.3,1.9,10.4,6.4,9.5,13.5c-4.5,5-9.4,5.2-14.5,0.5c-17.5-1.2-25.7,7-24.5,24.5
		C406.7,561.6,416.6,565.6,430.5,559.5z"/>
</g>
<g>
	<path class="st22" d="M477.5,511.5c0,17,0,34,0,51c6.3,0,12.7,0,19,0c5.6,1.1,7.4,4.4,5.5,10c-0.5,1.8-1.7,3-3.5,3.5
		c-10.7,0.8-21.3,0.7-32-0.5c-1-1.2-1.9-2.5-2.5-4c-0.7-19.7-0.7-39.3,0-59C468,506.2,472.5,505.9,477.5,511.5z"/>
</g>
<g>
	<path class="st23" d="M693.5,507.5c4.1-0.8,7.3,0.5,9.5,4c0.7,20.7,0.7,41.3,0,62c-4.4,5.3-8.8,5.3-13,0c-0.7-20.7-0.7-41.3,0-62
		C690.7,509.7,691.9,508.3,693.5,507.5z"/>
</g>
<g>
	<path class="st4" d="M733.5,507.5c4.3-0.7,7.8,0.6,10.5,4c0.3,14,0.7,28,1,42c2.1,5.3,5.9,7.9,11.5,8c6.6,0.1,11.1-2.9,13.5-9
		c0.3-13.7,0.7-27.3,1-41c5.1-5.5,9.7-5.2,14,1c0.7,14,0.7,28,0,42c-4.9,16.6-16.1,24.1-33.5,22.5c-10.7-3.1-17.9-9.9-21.5-20.5
		c-0.7-15-0.7-30,0-45C730.7,509.7,731.9,508.3,733.5,507.5z"/>
</g>
<g>
	<path class="st24" d="M538.5,507.5c29.3-0.2,42.8,14.1,40.5,43c-5.9,19.5-19.1,28.4-39.5,26.5c-15.9-3.6-25.4-13.4-28.5-29.5
		C510.1,527.2,519.3,513.9,538.5,507.5z"/>
</g>
<g>
	<path class="st25" d="M539.5,523.5c11.2-1.3,19.4,3,24.5,13c1,18-7.5,26.2-25.5,24.5c-10.3-5-14.2-13.2-11.5-24.5
		C529.4,530.3,533.6,526,539.5,523.5z"/>
</g>
<g>
	<path class="st26" d="M823.5,537.5c-0.7,11.7-1.3,23.3-2,35c-0.3-12,0-24,1-36C823.1,536.6,823.4,537,823.5,537.5z"/>
</g>
<g>
	<path class="st27" d="M422.5,549.5c3,0,6,0,9,0c0.3,3.5,0,6.9-1,10c0-3,0-6,0-9C427.6,550.8,424.9,550.5,422.5,549.5z"/>
</g>
<g>
	<path class="st28" d="M612.5,537.5c-0.7,11.7-1.3,23.3-2,35c-0.3-12,0-24,1-36C612.1,536.6,612.4,537,612.5,537.5z"/>
</g>
<g>
	<path class="st29" d="M644.5,536.5c0.1-0.5,0.4-0.9,1-1c1,12.6,1.3,25.3,1,38C645.8,561.2,645.2,548.8,644.5,536.5z"/>
</g>
<g>
	<path class="st30" d="M409.5,575.5c5.3,0.8,10.6,1.1,16,1c-2,0.7-4.1,1-6.5,1C415.5,577.7,412.4,577,409.5,575.5z"/>
</g>
</svg>
