<?xml version="1.0" encoding="utf-8"?>
<!-- Generator: Adobe Illustrator 25.2.3, SVG Export Plug-In . SVG Version: 6.00 Build 0)  -->
<svg version="1.1" id="Layer_1" xmlns="http://www.w3.org/2000/svg" xmlns:xlink="http://www.w3.org/1999/xlink" x="0px" y="0px"
	 viewBox="0 0 1024 1024" style="enable-background:new 0 0 1024 1024;" xml:space="preserve">
<style type="text/css">
	.st0{fill-rule:evenodd;clip-rule:evenodd;fill:#101922;}
	.st1{fill-rule:evenodd;clip-rule:evenodd;fill:#FBFBFC;}
	.st2{fill-rule:evenodd;clip-rule:evenodd;fill:#FAFBFB;}
	.st3{fill-rule:evenodd;clip-rule:evenodd;fill:#62676A;}
	.st4{fill-rule:evenodd;clip-rule:evenodd;fill:#F6F7F8;}
	.st5{fill-rule:evenodd;clip-rule:evenodd;fill:#F5F7F7;}
	.st6{fill-rule:evenodd;clip-rule:evenodd;fill:#131B26;}
	.st7{fill-rule:evenodd;clip-rule:evenodd;fill:#C8CDD0;}
	.st8{fill-rule:evenodd;clip-rule:evenodd;fill:#969BA0;}
	.st9{fill-rule:evenodd;clip-rule:evenodd;fill:#CACFD4;}
	.st10{fill-rule:evenodd;clip-rule:evenodd;fill:#545B67;}
	.st11{fill-rule:evenodd;clip-rule:evenodd;fill:#8A8F96;}
	.st12{fill-rule:evenodd;clip-rule:evenodd;fill:#FBFCFC;}
	.st13{fill-rule:evenodd;clip-rule:evenodd;fill:#656A6C;}
	.st14{fill-rule:evenodd;clip-rule:evenodd;fill:#818587;}
	.st15{fill-rule:evenodd;clip-rule:evenodd;fill:#858D92;}
	.st16{fill-rule:evenodd;clip-rule:evenodd;fill:#F1F4F5;}
	.st17{fill-rule:evenodd;clip-rule:evenodd;fill:#EDF3F4;}
	.st18{fill-rule:evenodd;clip-rule:evenodd;fill:#73777E;}
	.st19{fill-rule:evenodd;clip-rule:evenodd;fill:#6D7679;}
	.st20{fill-rule:evenodd;clip-rule:evenodd;fill:#F9FAFA;}
	.st21{fill-rule:evenodd;clip-rule:evenodd;fill:#F7F9F9;}
	.st22{fill-rule:evenodd;clip-rule:evenodd;fill:#F6F7F7;}
	.st23{fill-rule:evenodd;clip-rule:evenodd;fill:#F8F9FA;}
	.st24{fill-rule:evenodd;clip-rule:evenodd;fill:#F7F8F8;}
	.st25{fill-rule:evenodd;clip-rule:evenodd;fill:#121A23;}
	.st26{fill-rule:evenodd;clip-rule:evenodd;fill:#B2BABE;}
	.st27{fill-rule:evenodd;clip-rule:evenodd;fill:#44484C;}
	.st28{fill-rule:evenodd;clip-rule:evenodd;fill:#B2B4B7;}
	.st29{fill-rule:evenodd;clip-rule:evenodd;fill:#AAADB0;}
	.st30{fill-rule:evenodd;clip-rule:evenodd;fill:#B7BABE;}
</style>
<g>
	<path class="st0" d="M-0.5-0.5c341.3,0,682.7,0,1024,0c0,341.3,0,682.7,0,1024c-341.3,0-682.7,0-1024,0
		C-0.5,682.2-0.5,340.8-0.5-0.5z"/>
</g>
<g>
	<path class="st1" d="M714.5,445.5c0,4,0,8,0,12c-9,0-18,0-27,0c-5.2-67-36.2-118.2-93-153.5c-51.7-28.6-105.4-32.9-161-13
		c-70.8,33-109.8,88.5-117,166.5c-8.7,0-17.3,0-26,0c0-7.3,0-14.7,0-22c10.5-62.2,41.2-111.7,92-148.5c58.1-38.2,120.4-46.9,187-26
		c76.2,29.5,123.7,84,142.5,163.5C713.3,431.4,714.2,438.4,714.5,445.5z"/>
</g>
<g>
	<path class="st2" d="M481.5,313.5c1,0,2,0,3,0c0,9.3,0,18.7,0,28c-27.7,4.9-51.2,17.6-70.5,38c-5.5,7-11,14-16.5,21
		c-7.2-4.1-14.5-7.9-22-11.5c-0.5-0.6-0.9-1.2-1-2c18.9-32.3,45.9-55,81-68C464,316.4,472.7,314.6,481.5,313.5z"/>
</g>
<g>
	<path class="st2" d="M519.5,313.5c47.3,6.6,83.8,29.9,109.5,70c1,1.5,1.5,3.2,1.5,5c-8.3,3.6-16.5,7.6-24.5,12
		c-20.2-32-49.1-51.7-86.5-59C519.5,332.2,519.5,322.8,519.5,313.5z"/>
</g>
<g>
	<path class="st3" d="M481.5,313.5c1.1-0.9,2.4-1.3,4-1c0.3,9.8,0,19.5-1,29c0-9.3,0-18.7,0-28C483.5,313.5,482.5,313.5,481.5,313.5
		z"/>
</g>
<g>
	<path class="st2" d="M446.5,486.5c6.2,19.7,19,33,38.5,40c0.5,8.7,0.7,17.3,0.5,26c-35.8-7.5-57.8-29.2-66-65c-0.8-10-1.1-20-1-30
		c5.3-33,23.3-56,54-69c3.8-1.5,7.8-2.5,12-3c0.2,8.3,0,16.7-0.5,25C451.4,426,438.9,451.4,446.5,486.5z"/>
</g>
<g>
	<path class="st2" d="M546.5,395.5c32.9,22.9,45.4,54.3,37.5,94c-7.6,28.9-25.1,49.1-52.5,60.5c-3.9,1.2-7.9,2-12,2.5
		c-0.2-8.7,0-17.3,0.5-26c33.4-15.4,45.9-41.1,37.5-77c-6.5-18.3-18.8-31-37-38c-1-8.6-1.3-17.3-1-26
		C529.3,386.9,538.3,390.2,546.5,395.5z"/>
</g>
<g>
	<path class="st4" d="M357.5,421.5c8.1,3.3,16.1,6.9,24,11c0.3,0.7,0.7,1.3,1,2c-2.2,7.9-3.5,15.9-4,24c-9,0-18,0-27,0
		C351,445.7,353,433.4,357.5,421.5z"/>
</g>
<g>
	<path class="st5" d="M644.5,421.5c1-0.1,1.8,0.2,2.5,1c4.1,11.7,5.9,23.7,5.5,36c-9.3,0.3-18.4,0-27.5-1c-0.6-7.9-2.1-15.5-4.5-23
		c0.3-0.7,0.7-1.3,1-2C629.1,428.5,636.8,424.8,644.5,421.5z"/>
</g>
<g>
	<path class="st2" d="M543.5,455.5c5.2,25.5-3.8,43.6-27,54.5c-3,0.7-6,1.2-9,1.5c-6.8,0.3-13.5-0.4-20-2c-11.2-4.6-19.6-12.2-25-23
		c-8.5-25.8-0.8-44.9,23-57.5C512.3,421.9,531.6,430.7,543.5,455.5z"/>
</g>
<g>
	<path class="st6" d="M495.5,448.5c18.4-1.5,27.5,6.9,27.5,25c-6.8,15.6-18,19.8-33.5,12.5C476.2,471,478.2,458.5,495.5,448.5z"/>
</g>
<g>
	<path class="st7" d="M290.5,435.5c0,7.3,0,14.7,0,22c8.7,0,17.3,0,26,0c-9.2,1-18.5,1.3-28,1C288.1,450.6,288.7,442.9,290.5,435.5z
		"/>
</g>
<g>
	<path class="st8" d="M714.5,445.5c1,4.1,1.3,8.5,1,13c-9.5,0.3-18.8,0-28-1c9,0,18,0,27,0C714.5,453.5,714.5,449.5,714.5,445.5z"/>
</g>
<g>
	<path class="st9" d="M418.5,457.5c-0.1,10,0.2,20,1,30c-1.5-5.8-2.2-11.8-2-18C417.5,465.3,417.8,461.3,418.5,457.5z"/>
</g>
<g>
	<path class="st1" d="M348.5,519.5c-9.2-1-18.5-1.3-28-1c0,6.7,0,13.3,0,20c-7.2,1.3-14.5,1.3-22,0c-5.5-14.2-8.3-28.8-8.5-44
		c0.5-0.5,1-1,1.5-1.5c27-0.7,54-0.7,81,0c4.1,1.5,7,4.3,8.5,8.5c0.5,43.3,0.7,86.7,0.5,130c-12.1,0.4-21.3-4.6-27.5-15
		c-0.3-31.3-0.7-62.7-1-94C351.9,520.9,350.4,519.9,348.5,519.5z"/>
</g>
<g>
	<path class="st1" d="M713.5,495.5c0.1,4.7-0.3,9.4-1,14c-1.4,9.8-3.5,19.5-6.5,29c-7.7,1-15.6,1.3-23.5,1c0-7,0-14,0-21
		c-9.5-0.3-18.8,0-28,1c-2.2,0.5-3.7,1.9-4.5,4c-0.3,31.3-0.7,62.7-1,94c-1.4,3.8-3.9,6.6-7.5,8.5c-5.8,3.9-12.1,5.7-19,5.5
		c-0.2-43.3,0-86.7,0.5-130c1.4-3.8,3.9-6.6,7.5-8.5c27-0.7,54-0.7,81,0C712.4,493.7,713,494.5,713.5,495.5z"/>
</g>
<g>
	<path class="st10" d="M713.5,495.5c0.7,1.6,1,3.5,1,5.5c0.1,3.1-0.5,6-2,8.5C713.2,504.9,713.6,500.2,713.5,495.5z"/>
</g>
<g>
	<path class="st11" d="M487.5,509.5c6.5,1.6,13.2,2.3,20,2c-4.5,1.1-9.1,1.3-14,0.5C491.3,511.4,489.3,510.6,487.5,509.5z"/>
</g>
<g>
	<path class="st12" d="M484.5,570.5c0,17.7,0,35.3,0,53c-1.7,0-3.3,0-5,0c-9.1-0.5-17-3.8-23.5-10c-0.3-5.3-0.7-10.7-1-16
		c-1.8-4.1-4.6-7.3-8.5-9.5c-11.8-3.7-21.7-10.2-29.5-19.5c-1.6-2.9-2.9-5.9-4-9c-0.7-14-0.7-28,0-42c11.6,20.3,27.8,35.8,48.5,46.5
		C469,566.9,476.6,569.1,484.5,570.5z"/>
</g>
<g>
	<path class="st1" d="M589.5,517.5c1.3,6.3,2,13,2,20c3.2,17.9-2.5,32-17,42.5c-9,2.6-16.8,7.1-23.5,13.5c-0.7,1.3-1.3,2.7-2,4
		c-0.3,5-0.7,10-1,15c-1.1,2.1-2.6,4-4.5,5.5c-7.5,4.2-15.5,6-24,5.5c-0.3-17.7,0-35.3,1-53C552.4,564.1,575.4,546.4,589.5,517.5z"
		/>
</g>
<g>
	<path class="st13" d="M654.5,519.5c9.2-1,18.5-1.3,28-1c0,7,0,14,0,21c-1-6.5-1.3-13.1-1-20C672.5,519.5,663.5,519.5,654.5,519.5z"
		/>
</g>
<g>
	<path class="st14" d="M348.5,519.5c-9,0-18,0-27,0c0.3,6.5,0,12.9-1,19c0-6.7,0-13.3,0-20C330,518.2,339.3,518.5,348.5,519.5z"/>
</g>
<g>
	<path class="st15" d="M681.5,572.5c3.2-1.3,6.5-1.3,10,0c-0.1,0.6-0.5,0.9-1,1C687.7,572.5,684.7,572.2,681.5,572.5z"/>
</g>
<g>
	<path class="st16" d="M313.5,572.5c2.7,0,5.3,0,8,0c0,3.7,0,7.3,0,11C318.1,580.4,315.4,576.8,313.5,572.5z"/>
</g>
<g>
	<path class="st17" d="M681.5,572.5c3.2-0.3,6.2,0,9,1c-2.6,3.5-5.4,6.8-8.5,10C681.5,579.8,681.3,576.2,681.5,572.5z"/>
</g>
<g>
	<path class="st18" d="M313.5,572.5c2.8-1,5.8-1.3,9-1c0.3,4.2,0,8.2-1,12c0-3.7,0-7.3,0-11C318.8,572.5,316.2,572.5,313.5,572.5z"
		/>
</g>
<g>
	<path class="st19" d="M484.5,570.5c1,17.8,1.3,35.8,1,54c-2.2,0.3-4.2,0-6-1c1.7,0,3.3,0,5,0C484.5,605.8,484.5,588.2,484.5,570.5z
		"/>
</g>
<g>
	<path class="st2" d="M412.5,613.5c1-0.1,1.8,0.2,2.5,1c8.8,18.5,23,31,42.5,37.5c6.3,1.7,12.7,3.3,19,5c2.6,0.5,5.3,0.7,8,0.5
		c0,9,0,18,0,27c-25-2.1-48.7-8.9-71-20.5C412.5,647.2,412.2,630.4,412.5,613.5z"/>
</g>
<g>
	<path class="st1" d="M589.5,613.5c1.3,8,2,16.3,2,25c-0.3,8.3-0.7,16.7-1,25c-22.1,12-45.8,19-71,21c0-9,0-18,0-27
		c22.6-2,42.1-10.7,58.5-26C582.9,626.1,586.7,620.1,589.5,613.5z"/>
</g>
<g>
	<path class="st20" d="M518.5,805.5c0.3-12.7,0-25.4-1-38c-0.6,0.1-0.9,0.5-1,1c-5,7.4-10.5,14.4-16.5,21
		c-5.4-6.5-10.5-13.2-15.5-20c-0.1-0.5-0.4-0.9-1-1c-1,12-1.3,24-1,36c-1.7,4.7-5,6.2-10,4.5c-1.2-1.2-2.3-2.3-3.5-3.5
		c-0.7-20.7-0.7-41.3,0-62c3.4-4.3,7.6-5.1,12.5-2.5c6.5,7.6,12.7,15.4,18.5,23.5c6.7-8.3,13.5-16.4,20.5-24.5
		c5.1-1.6,9-0.1,11.5,4.5c0.7,20,0.7,40,0,60c-2.2,4.4-5.7,5.9-10.5,4.5C520.3,808,519.3,806.8,518.5,805.5z"/>
</g>
<g>
	<path class="st20" d="M695.5,769.5c-0.1-0.5-0.4-0.9-1-1c-1,12-1.3,24-1,36c-1.9,4.4-5.2,5.9-10,4.5c-1.2-1.2-2.3-2.3-3.5-3.5
		c-0.7-20.7-0.7-41.3,0-62c4.3-4.9,8.9-5.3,14-1c5.7,7.3,11.3,14.7,17,22c6.2-8.6,13.1-16.8,20.5-24.5c4.4-1.4,7.9-0.2,10.5,3.5
		c1.6,19.9,2,39.9,1,60c-2.4,5.9-6.6,7.4-12.5,4.5c-0.6-0.8-1.1-1.6-1.5-2.5c-0.3-12.3-0.7-24.7-1-37c-4.5,5-8.5,10.3-12,16
		c-1.4,1.7-3.1,3.1-5,4C705.3,782.6,700.2,776.3,695.5,769.5z"/>
</g>
<g>
	<path class="st21" d="M302.5,791.5c1-3.1,1.3-6.5,1-10c-3,0-6,0-9,0c-6.6-2.8-7.6-7-3-12.5c7-0.7,14-0.7,21,0
		c1.8,0.8,3.3,2,4.5,3.5c0.7,9,0.7,18,0,27c-5.4,5.3-11.9,8.3-19.5,9c-5.4,0.1-10.7-0.2-16-1c-17.2-6.7-25.4-19.4-24.5-38
		c6.3-23.6,21.4-33.1,45.5-28.5c7.3,1.9,10.4,6.4,9.5,13.5c-4.5,5-9.4,5.2-14.5,0.5c-17.5-1.2-25.7,7-24.5,24.5
		C278.7,793.6,288.6,797.6,302.5,791.5z"/>
</g>
<g>
	<path class="st22" d="M349.5,743.5c0,17,0,34,0,51c6.3,0,12.7,0,19,0c5.6,1.1,7.4,4.4,5.5,10c-0.5,1.8-1.7,3-3.5,3.5
		c-10.7,0.8-21.3,0.7-32-0.5c-1-1.2-1.9-2.5-2.5-4c-0.7-19.7-0.7-39.3,0-59C340,738.2,344.5,737.9,349.5,743.5z"/>
</g>
<g>
	<path class="st23" d="M565.5,739.5c4.1-0.8,7.3,0.5,9.5,4c0.7,20.7,0.7,41.3,0,62c-4.4,5.3-8.8,5.3-13,0c-0.7-20.7-0.7-41.3,0-62
		C562.7,741.7,563.9,740.3,565.5,739.5z"/>
</g>
<g>
	<path class="st4" d="M605.5,739.5c4.3-0.7,7.8,0.6,10.5,4c0.3,14,0.7,28,1,42c2.1,5.3,5.9,7.9,11.5,8c6.6,0.1,11.1-2.9,13.5-9
		c0.3-13.7,0.7-27.3,1-41c5.1-5.5,9.7-5.2,14,1c0.7,14,0.7,28,0,42c-4.9,16.6-16.1,24.1-33.5,22.5c-10.7-3.1-17.9-9.9-21.5-20.5
		c-0.7-15-0.7-30,0-45C602.7,741.7,603.9,740.3,605.5,739.5z"/>
</g>
<g>
	<path class="st24" d="M410.5,739.5c29.3-0.2,42.8,14.1,40.5,43c-5.9,19.5-19.1,28.4-39.5,26.5c-15.9-3.6-25.4-13.4-28.5-29.5
		C382.1,759.2,391.3,745.9,410.5,739.5z"/>
</g>
<g>
	<path class="st25" d="M411.5,755.5c11.2-1.3,19.4,3,24.5,13c1,18-7.5,26.2-25.5,24.5c-10.3-5-14.2-13.2-11.5-24.5
		C401.4,762.3,405.6,758,411.5,755.5z"/>
</g>
<g>
	<path class="st26" d="M695.5,769.5c-0.7,11.7-1.3,23.3-2,35c-0.3-12,0-24,1-36C695.1,768.6,695.4,769,695.5,769.5z"/>
</g>
<g>
	<path class="st27" d="M294.5,781.5c3,0,6,0,9,0c0.3,3.5,0,6.9-1,10c0-3,0-6,0-9C299.6,782.8,296.9,782.5,294.5,781.5z"/>
</g>
<g>
	<path class="st28" d="M484.5,769.5c-0.7,11.7-1.3,23.3-2,35c-0.3-12,0-24,1-36C484.1,768.6,484.4,769,484.5,769.5z"/>
</g>
<g>
	<path class="st29" d="M516.5,768.5c0.1-0.5,0.4-0.9,1-1c1,12.6,1.3,25.3,1,38C517.8,793.2,517.2,780.8,516.5,768.5z"/>
</g>
<g>
	<path class="st30" d="M281.5,807.5c5.3,0.8,10.6,1.1,16,1c-2,0.7-4.1,1-6.5,1C287.5,809.7,284.4,809,281.5,807.5z"/>
</g>
</svg>
